<mxfile host="Electron" modified="2024-09-03T05:26:25.232Z" agent="Mozilla/5.0 (Macintosh; Intel Mac OS X 10_15_7) AppleWebKit/537.36 (KHTML, like Gecko) draw.io/24.5.3 Chrome/124.0.6367.207 Electron/30.0.6 Safari/537.36" etag="lr0r1IPh_YNCjj79-3jQ" version="24.5.3" type="device">
  <diagram name="Page-1" id="VkZ31JazV5CsN9RDe-6r">
    <mxGraphModel dx="1314" dy="953" grid="0" gridSize="10" guides="1" tooltips="1" connect="1" arrows="1" fold="1" page="1" pageScale="1" pageWidth="827" pageHeight="1169" math="0" shadow="0">
      <root>
        <mxCell id="0" />
        <mxCell id="1" parent="0" />
        <UserObject label="&lt;figure name=&quot;2ba1&quot; class=&quot;graf graf--figure&quot;&gt;&lt;img class=&quot;graf-image&quot; data-image-id=&quot;0*0cX56hxNlQ-aU28-.png&quot; data-width=&quot;246&quot; data-height=&quot;244&quot; src=&quot;https://cdn-images-1.medium.com/max/800/0*0cX56hxNlQ-aU28-.png&quot;&gt;&lt;/figure&gt;" link="&lt;figure name=&quot;2ba1&quot; class=&quot;graf graf--figure&quot;&gt;&lt;img class=&quot;graf-image&quot; data-image-id=&quot;0*0cX56hxNlQ-aU28-.png&quot; data-width=&quot;246&quot; data-height=&quot;244&quot; src=&quot;https://cdn-images-1.medium.com/max/800/0*0cX56hxNlQ-aU28-.png&quot;&gt;&lt;/figure&gt;" id="HrV0K1e-S6UGgycjw_Id-1">
          <mxCell style="text;whiteSpace=wrap;html=1;" vertex="1" parent="1">
            <mxGeometry x="20" y="260" width="110" height="60" as="geometry" />
          </mxCell>
        </UserObject>
        <mxCell id="HrV0K1e-S6UGgycjw_Id-3" value="" style="shape=cross;whiteSpace=wrap;html=1;fillColor=#f5f5f5;strokeColor=#666666;fontColor=#333333;" vertex="1" parent="1">
          <mxGeometry x="374" y="380" width="80" height="80" as="geometry" />
        </mxCell>
        <mxCell id="HrV0K1e-S6UGgycjw_Id-4" value="" style="shape=image;verticalLabelPosition=bottom;labelBackgroundColor=default;verticalAlign=top;aspect=fixed;imageAspect=0;image=data:image/png,iVBORw0KGgoAAAANSUhEUgAAAQ4AAACUCAMAAABV5TcGAAAAtFBMVEX///88Oj7iWhw5Nzs2NDgzMTX8/Pz5+fkAAAD19fXiWBgxLzThUQAuKzC2tbfy8vJEQ0fgSwDc29zq6urEw8Swr7AoJSvi4uLhUwpgX2KBgIJXVlnV1dVvbnBPTVHKycqdnJ6Uk5V4d3mKiYunpqgeGyHfQAD87un65t/20sb43dTvrZj+9/MXFBvtnX/xtZ7sl3X0x7fjYivpiWnlb0DogFjupYwAAArlajTmd0/yvavneEWY5BlGAAARNUlEQVR4nO1caXuiPBcGE3BBdgTZF7EuVVu7t/P//9cbIAlBsTPX89bacbg/dESOmJycnOXOcTiuQ4cOHTp06NChQ4cOHTp06HAJbBaLzaXH8GOw2b9Nx293i0uP42dg86JPR6Opfr+89Eh+BO5uRr0C+mO3YThuPa60gfTxIV56MJfHo4610Zv2VpcezMWxpMbR642f/3nzuKPGUW6XSw/n0niaMuoYPfzr0XY6YtTRG+8uPZ7LYsHuFWQe/7g33Y8b6uhN3y89ooviDqtjjF3IaHR36SFdEvfTao/cP2J9TJ/W7ZKb5cfHanHlkfi5Usfbav9Q+dTR9MibipvN+u5xdIOg76469GweSnVMn9ebHdkub/uGxGK93/V0vcrWRvrjNetjXdnEGE1yRTKQMZ3xZrFcvTw/6Hqdm4werjn0fIxKdUx3qJi97eHt0rtDHkJcrFe3jw83+riRmIxG11zn7aotMLpFrxfPIxJsV8vV3e5pNG6q4voTkyqejB7KWmVPzGP0/vg2LjihQ2UUqjoReK4Bi/fKkz6VSy6SYNubHpsFNo7p7RVzROunynU8V7wgdqyfYPx8zQziqpr/lNCCt3qLChhTwWZ0rbirvMXoBV/3e9MDVeg3+q8X4mNRzLnocM+N3fRgliudWkJBrutv9/uF+EET1pfPHvb3AwcWJg99HhOz0Ke/PtYblGSsK3/bG43vrzjl4LjlS7XsI6ZqW46RVYx1/ellhf3J+p0Uvb+uNj8XUVH2pOOdMX1m5nmn997vP+pouiRM+/TtSrUhbpa371Od0oLTR/Ym2iHM5WKnEzd6lUFls1jdPTUrken9aelbnbjR/UmhvxYbVKG+9/QmITjq3Z78wB6rbTQ+LfOXYrPevzyP9SZ1jpZdfzu5DfYPJKjsriyoLPa7pxZdjMdPrONsYv2G7Ui/vy43uvm4fxgf28X0ffcJ/7mkIfbKKhVx1xsf2UXv/WW//mTVFyTEjq+tqH/Rm5QWyrPeb1fLz2v1e5KgPlxZUFmzRM5oejN9vlv/rhlMvMUfmvaujQ7cMZF11Pt1t978nsOhddvo5doIn0eGCR/9WQKxf8MGNd5dXBtDS3HIazOO40Clt0zFqi/6QZ4E/ep9y+qXt+MhkUMwKrl7hsUYjZ7u/mCCxKBGP4DwyQevHnmdDF4HA94il9rrViGvlWiw3c4n1Ue2EdJDfzIIK21NBtvX121SCX40SC7kO3a/DRWrN7JXLs74mDaAYR9feLKf+baLrUWxeZDgO4lt+17mx+VFas/Q337yiu96tp+FWYxFfx2k5frN293ycwdJDuUuT52ndgR8siXcrcUFr3jSqitEwqy6EWuyp3J9oxL0tjn6O/TsHH9srnAinfBqekD69VBqvlt/dgBNzaM8hDoz+qrpIJhqy1cFmj2JNLywqmYHqrV1Ky+Q2/5kW20HNPOs/rAZbieOYcSRVm0rEdqWY5j0/sfb0VHBVB8/N4v5Jl6+yzz6TjxJQz+KojBVjP7hbc8OORdWLgHpBs5mmpyWUo67VdSBX24cw30N6s8YrsDzEGiSW73pSECQ6LZCWD2PjhSC9swn2feSnDKMz3q0Ihp5qNm2JEAIJRu6udO0EGQciRFKaXWl8FCQo1nlOhJgx8G2MpzAf60Xn4sj3kXw5bCStCQtdMOYeezy9vEgUR+NH5BLFWPmMQ2Q4HJW81Anri1DngDIdmix+hh6UPJ9HnrVm4nkKhMcWw1f5n0f8qV7QOpgZptDNzAMI517lWhiZ6bhqByL5cfjw5jJQNBe2XBmHjlcOxbEPPTzmYcz4wW+ASBFFiNgRdD1/UgKy0UTvXnCYW2JCdTQLU0qfamZ2WEwNPHapvOkOHVH/1Sy3jztq0eOabF/edMJg/HwghY99mTt5FjvbrB5nGoI+r8RhALkDyEz+lC9+Qytc/zql87TDAfUQ8S+rRQWsA3LS4WXXS9zK3V4WwXNfRgKVWBRw+Le7HgbbNa3TwUZhkxjv+GcJJJl9+RgN2+k4+NMmanpyuBIGzwvaQaRmEjl/FWceRnagMxJnQ3KuSsDv3yrn8Pt9rVaW6cIx+jxPKwU62jz+fbVb24WPMflx9ONPr1FPtQKIeTl7PRwiXmMpmcxj6ErtyijsA93iEUMKy6CiBgE5ZzVOCYWPwys0umqcVAJ900rtyplIbFi6kMrVrEsSu1jg2uFuNjvVsg0ZhpEa2Mnp8eLW6UKNuwc5pHZ7dpAg6JJ+cF+F1tfkncOg/QfJkzihhMVH5bbdss6Li43uQ3DCO0Jjz4+g3kE2zqezLdbZt+AQfjNnIIlYI/+ytpQjHbqvmBD8PWmpge/fARDjXhRKGW5pXiAbB3JVn7/8S9Ff0IMdT6s37UklOMv33RdH79/lAnamngP/csZsZzMHkZVxmCEchVp/eA3H/1y9HOsDsjX/tbQIArii6LVdDS+mf7arcUFZQh/ffEIRBcbh0Bn38+kIrX22iLAeaF6eG2kOs4avsALIbe513E40W+mj/ckkb35YvMIIuwr7IT6CTO0JX9yVLWcH6Yr4ZhG46wTFmVPZG6YFqBRncV+tXlYGlaHrLBvNgqLGuLQdIwgCAxz2Hq/XbatQG6FQ/yYjWsjzvQkND7AG9yqrSMKeY+vDS45T9SR12+qVmvFYAZK4rkRDzTXSyzj00mqpayGZP0MFcinNl6/1FiBIlVxqCfFgzFnsByeYHHraWvD3Bf/MIyqQwp/4zkdxfN5WRYgAFCwZT7Mg5P7yVFmPsCyULZ5N43bzMm0khDVOwVKRiQg6thiXikB1eiElFs+HXJFuJD7PyZ/jAlRBy94p2rqcuSTENqQyeWBZLt5e9npTELBFlhZQfaTY9nY02xZKAGLIkBUiDqqGmCY8BB/16Q4fWtrK/1i64iJ70DfmZx0CKKVAemorpFA1mZRcQiPZSE8tL7+JGIohVe14FSpOsRSgLiSbapy4vr2sce25WOv+rXntI5PhwT5/IT1m0kktBV5QHCtQw+iplFrQQhggzHg+qnGcApAKhj3FKsDyFxhK9g2+PmsdD3ljzae9MZ5v366J+a/IawHBfn2NNTxDtmQ2kCi+FAWnpKVWVkx51lOQfD7BcdE0g6fK6g0HHXtsLbazXK/exvTzhj96atbGhSmgIOC1SJhZse2X+vDbVSoTgZPywpa7T+sqMGwyAXhbLpYk7JXJKP4Yps1w9Jmsbp9urnRx2P95usbPESXWU2hRR9myBo/ihdyY/nljPHAZtaQFSS5oZ2a1DGzpg3ZaaEO4sfmE/QaC9jhsYcXN4uP3f39y28OZf4T4gEzLDg/DADqrDYfwZ5D18siey7VH5nX7kOd1dqASMgPQ9+e27VGtpiJ5xRaOKKoI8vSNkcPMWjaYXER3je2+1m8OwfSOaMPsG0GgH7+SicoR5NKWWIcStTWBZ8MWMzpzKHk5/htI609D8ClmTgjhaPAhx5CGaIC/FUABhHWjNxiG+eGx/I/MGroIyZ+A0iRwgQeJaIGMicbLCb+AAj+hAnaTr0f8XGcE2J1gIxxPQpZF83HHzjwTN+Dfsj6Spnl9FWfjBuGzW1k0MggZ/i4ntBqSLY5CzMkuoMVixpgBUGfeaiY0mUhVbb77RxDc7iHS5LjBQPy7DAnCUg+C7XqtEEhblM+4gYCGkfkcv4krkCPERKzA84WXkYblPIh+sjImg2Jf5ey4yKM5JBAKPMJkzzDDo9khwn1FWVqo+AYwh5QcqLfjDbQbwv734LAZewDCDM8IWVLDKalOjEjEgvLKVpzYugtstQ8hIQrc7BSHaCR96la87DnYsZRxAqfsQ+oKVXwxEoCktIS4WlOXZbjQxKQ7fxYFFXq+PFl44Oa4tKMZ3NaBzQzOABn30/IYYiWz9gH9mEm9gZS2Fa60gK0PBRx8PpLrcdK/RyvfOktVKwcoDUI88PjHqBNLtYdKCqsrdplNUfmK7fXdgFOukruKmZN5RjEWwiFOkzsNEHEqo7GWUAGIl1uuxT1dO3KqhYEXFJBrZ0qdGCtDlqcb9szBRpLCtUZeBNCnxUhUQz6hM7mhez7szACMeHrFLusPnHxL5xIhgKcrhR9cf2QqK59v5MUrXSl5AI2DqZpPRsGPs3n8t+TsudCnwn8pfPEvk1u58lEBYsX6hjiKCkdR9kSVAPFXrII59c4mK5p9KFFTgYh326Y3wKVWimaosipEtkMrVMk+wNIcX2Yh+bS+miyWaQitBIvISesCCl47HTIhSRBlfzLbZc60+TnyZAzKM3fqg6VhOEi0SDqOGUd1JUWq028hN3Is0hlXThulZYA9uxy26XmxuZoTAq13laKmJx1y0W36RArEkbtlpRX+wMITpF2kAjN+iSTqqPYp3S78K/fmJv2D05UJsR7FJslx7o5KHLJR0lSPi9bfCjN26q6Ps7SgcAxcZZnN0KMFQCk8ttomQ3hd1W1wyCdzxqZjkUK2MKVpsRUpDYOVcFZBywpvyEp4tvzDkIigaKidXDFKPjsPqDVIqgarkgJwHTdnBXDIOHtA92nUm0QYkbToZas1LGJZ0mKHK1PcnQYtZB5nIMNQihCq4FVJzfaR+oH4K5LWPuxL5z1CYhG7hfnHI0uLJVUWgUDysQZKTlMSw3SQSVopW2LNKeUvQNRzglo4lXeJEHXbkhmNO2o9DmkLB2Qzx1tkTJcqVojpu9ITcmCFEm6GdVZmdY80O/HLq3u8WGVUQelSdO4Y0+pNTApyiOeSe7piEh5b5PCzaFVlOSf6jL9IqihXRNURB9OSqZUNnsYWl1hQj5n9oCTU2rQJvtIpTkckFJm9OYkQvZDEq85WmdxwqRv9YiIL56TAqk+d+Kl7Ly13JDpj5OiJFBVM5iERBsAFEtuMepAAwtzp1x1NchDOk7Bpzy6RRloAMNJ1dSuGnnGyyiTIgmsbDA9Pmz7evH7EKxgSibQgIwGxGruDIjZ0yboZl7m8pQxrQq4nGf5ByDzoZckSeoxgpCvS3CzTvGBxLuzQhY9VAaoMunnpKI3maOKAZuiBDSw1NxKTUpB/7zuw2zQX7AA4ynKwDo7OE8DQiECWEGBPeWOmYoYlP2QlSyKJoQchMWPnygzO2AHRMiERvk8oUfD8Ly1bR0JjgBg1Rd1cFCG165xypayDhb5BNAmCj1KhpU9Xw52mmVKRpGSSOUzkV+dkUUDMD2r+zBP9RoTIrwfHvepN1Ujp80QgnZB2wEtTOlGKqM6cdFSo7zP8MSbOU5Ao4sQnTdZjzWpZew8sDOiL0I6tB9Cy/KRe2MPJesH8go9eCppREKTNNMOn8l4GOT026XwvMm6xR8vPxBKfqYA5WAi7bi5A0C5bXT9BByd4AM+KH4dVb4ufk8pkuy+EWe5qL18Hnr1CV561mRdVA7nieZSOzKcOQFNif2DSSI/qSXtD1UOZAEUUNYeF11iCAOjbC0uX4M5a/2mVkmA7QEvG0RCdQP55TY+/wsRZJogVKMv+t+g5jJjwQxF0bSj5q4mlMGnDEF8FJ7qE0LLOXE1WAoXEJCsVf7qq0TRWz1MYHUB2LTD0DDsQxcxIXc0cO4+6KFSNEZCCeXrmh/OFNZOcdpRdSObyix0/UiLfBdlH61tgMxD00I2qmTL9kJnolQQiwQfv258m0nenBzm431lQnG6V/GLIDpxnqRpmiuHP8abEXoLv28asaVYceD8wZBUI7CsQvZ6/hcFrwo8UnaBbuyfhyHOHeHs0iP5EcAcDeCTS4/kRyD2cZw9cy35lwDHWXDm3PhvAW5Wh4d9tP8myIEt9C/QrPbzMMRsB/z2vs4fCdOrSgUpvPRIfgScUKrUcXRM8E9CtaoSwupcR4cOHTp06NChQ4cOHTp06NChQ4cOHTp06NChw7+N/wFJp1vXX05ZRgAAAABJRU5ErkJggg==;" vertex="1" parent="1">
          <mxGeometry x="510" y="346" width="270" height="148" as="geometry" />
        </mxCell>
      </root>
    </mxGraphModel>
  </diagram>
</mxfile>
